<svg xmlns="http://www.w3.org/2000/svg" xmlns:xlink="http://www.w3.org/1999/xlink" width="100" height="50" viewBox="0 0 100 50">
  <defs>
    <clipPath id="clip-Custom_Size_1">
      <rect width="100" height="50"/>
    </clipPath>
  </defs>
  <g id="Custom_Size_1" data-name="Custom Size – 1" clip-path="url(#clip-Custom_Size_1)">
    <rect width="100" height="50" fill="#fff"/>
    <g id="buffbanklogo" transform="translate(0 1.83)">
      <path id="Path_1" data-name="Path 1" d="M13.11,13.17c2.85,0,4.16.541,4.16,2.214a9.2,9.2,0,0,1-.16,1.489l-.5,2.745a4.429,4.429,0,0,1-1,2.262,3.371,3.371,0,0,1-1.47.87,1.94,1.94,0,0,1,1.44,1.933,7.482,7.482,0,0,1-.12,1.257l-.69,3.866c-.59,3.335-1.41,4.2-5.87,4.2H4L7.81,13.17ZM8.81,31.265a2.3,2.3,0,0,0,.43,0c.75,0,1-.261,1.13-.967l1-5.152v-.232c0-.493-.25-.648-.93-.648H10.1Zm1.81-9.985h.37c.81,0,1.13-.251,1.22-.918l.65-3.625a1.122,1.122,0,0,0,0-.309c0-.406-.25-.561-.82-.561h-.5Z" fill="#ee7938"/>
      <path id="Path_2" data-name="Path 2" d="M24.07,13.17,20.92,30.506a2.5,2.5,0,0,0,0,.329c0,.387.22.57.62.57s.75-.309.84-.9L25.54,13.17h4.28L26.73,30.013c-.66,3.548-1.38,4.157-5.69,4.157-3.15,0-4.52-.251-4.52-2.127a12.012,12.012,0,0,1,.25-2.03L19.83,13.17Z" transform="translate(0 0)" fill="#ee7938"/>
      <path id="Path_3" data-name="Path 3" d="M38.81,13.17l-.5,2.736H35.72l-1,5.307h2.59l-.5,2.755H34.25L32.44,34.02H28.16L32,13.17Z" fill="#ee7938"/>
      <path id="Path_4" data-name="Path 4" d="M47.64,13.17l-.5,2.736H44.55l-1,5.307h2.6l-.5,2.755h-2.6L41.24,34.02H37l3.81-20.84Z" fill="#ee7938"/>
      <path id="Path_5" data-name="Path 5" d="M54.85,13.17c2.85,0,4.16.541,4.16,2.214a9.2,9.2,0,0,1-.16,1.489l-.5,2.745a4.429,4.429,0,0,1-1,2.262,3.371,3.371,0,0,1-1.47.87,1.94,1.94,0,0,1,1.44,1.933,7.482,7.482,0,0,1-.12,1.257l-.69,3.866c-.59,3.335-1.41,4.2-5.87,4.2H45.77l3.78-20.84Zm-4.3,18.095a2.3,2.3,0,0,0,.43,0c.75,0,1-.261,1.13-.967l1-5.152v-.232c0-.493-.25-.648-.93-.648h-.35Zm1.81-9.985h.37c.81,0,1.13-.251,1.22-.918l.65-3.625a1.486,1.486,0,0,0,0-.309c0-.406-.24-.561-.81-.561h-.5Z" fill="#ee7938"/>
      <path id="Path_6" data-name="Path 6" d="M69.28,13.17,68,34.01H63.91l.5-4.437H62.5L61.38,34.01H57.26l6.3-20.84ZM63.19,26.8h1.53l1.06-9.492h-.19Z" fill="#ee7938"/>
      <path id="Path_7" data-name="Path 7" d="M77.36,13.17l.47,10.4h.28l1.81-10.4h3.69L79.83,34.01H76.05l-.47-10.633h-.25L73.46,34.01H69.78l3.77-20.84Z" fill="#ee7938"/>
      <path id="Path_8" data-name="Path 8" d="M90,13.17l-1.5,8.323h.25L91.81,13.2H96l-4.15,9.222.65,11.6H88.23V23.909H88l-1.83,10.1H82.05l3.77-20.84Z" fill="#ee7938"/>
    </g>
  </g>
</svg>
